<?xml version="1.0" standalone="no"?>
<!DOCTYPE svg PUBLIC "-//W3C//DTD SVG 20010904//EN"
 "http://www.w3.org/TR/2001/REC-SVG-20010904/DTD/svg10.dtd">
<svg version="1.0" xmlns="http://www.w3.org/2000/svg"
 width="677.000000pt" height="637.000000pt" viewBox="0 0 677.000000 637.000000"
 preserveAspectRatio="xMidYMid meet">

<g transform="translate(0.000000,637.000000) scale(0.100000,-0.100000)"
fill="#000000" stroke="none">
<path d="M3083 5713 c-98 -102 -174 -233 -216 -373 -49 -162 -58 -296 -32
-455 19 -121 48 -200 140 -390 170 -352 214 -467 234 -608 13 -90 1 -200 -30
-281 l-19 -51 24 29 c40 48 76 132 92 212 18 95 18 130 -1 238 -27 154 -81
301 -213 576 -28 58 -60 134 -72 170 -68 203 -66 466 6 679 28 81 101 235 135
283 33 45 12 33 -48 -29z"/>
<path d="M3476 4989 c-42 -50 -93 -149 -117 -229 -19 -60 -23 -98 -23 -190 0
-143 24 -236 96 -376 127 -246 122 -231 126 -330 5 -104 -12 -177 -59 -261
-16 -29 -24 -53 -18 -53 6 0 37 26 68 58 81 80 105 144 105 277 0 124 -15 177
-99 350 -70 142 -89 193 -111 293 -26 123 -12 268 40 422 13 39 23 70 21 70
-2 0 -15 -14 -29 -31z"/>
<path d="M2080 3415 c-32 -39 31 -474 105 -730 36 -122 116 -323 168 -420 l43
-80 885 0 884 0 60 121 60 121 135 1 c102 0 151 5 202 20 177 51 297 181 349
379 24 92 29 229 11 292 -17 56 -92 132 -148 149 -66 19 -163 15 -258 -13 -47
-14 -89 -25 -92 -25 -3 0 -3 38 1 85 5 62 4 89 -5 100 -11 13 -158 15 -1200
15 -1037 0 -1189 -2 -1200 -15z m2708 -332 c20 -25 9 -171 -17 -247 -59 -169
-158 -237 -390 -270 -38 -6 -43 -5 -38 11 2 10 17 59 31 108 25 82 64 252 80
347 6 33 11 39 46 48 124 33 264 35 288 3z"/>
<path d="M1435 2101 c-9 -29 2 -44 63 -83 126 -81 344 -167 567 -222 106 -26
335 -70 423 -81 31 -4 52 -12 52 -19 0 -7 10 -22 23 -34 l23 -22 695 0 696 0
21 23 c12 13 22 28 22 34 0 6 24 14 53 18 87 11 316 55 422 81 223 55 441 140
567 222 59 38 73 57 62 86 -6 15 -149 16 -1844 16 -1783 0 -1839 -1 -1845 -19z"/>
</g>
</svg>
