<?xml version="1.0" standalone="no"?>
<!DOCTYPE svg PUBLIC "-//W3C//DTD SVG 20010904//EN"
 "http://www.w3.org/TR/2001/REC-SVG-20010904/DTD/svg10.dtd">
<svg version="1.0" xmlns="http://www.w3.org/2000/svg"
 width="296.000000pt" height="297.000000pt" viewBox="0 0 296.000000 297.000000"
 preserveAspectRatio="xMidYMid meet">

<g transform="translate(0.000000,297.000000) scale(0.100000,-0.100000)"
fill="#000000" stroke="none">
<path d="M1217 1992 c-35 -36 -34 -52 3 -87 36 -34 37 -42 9 -72 -20 -21 -21
-23 -5 -29 12 -5 25 2 42 21 31 36 30 42 -8 82 l-33 34 18 31 c24 42 7 55 -26
20z"/>
<path d="M1376 1990 c-14 -18 -26 -36 -26 -40 0 -5 14 -25 30 -43 35 -40 36
-44 13 -69 -13 -15 -14 -21 -4 -31 10 -9 17 -6 37 16 31 37 30 49 -7 92 l-32
36 22 23 c18 20 20 25 7 35 -11 9 -19 5 -40 -19z"/>
<path d="M1551 1994 c-28 -36 -26 -57 9 -97 l29 -34 -22 -21 c-16 -17 -19 -24
-9 -34 9 -9 17 -6 37 12 33 31 32 57 -7 97 l-32 33 21 22 c19 22 21 48 3 48
-5 0 -18 -12 -29 -26z"/>
<path d="M1040 1678 c0 -108 37 -210 107 -295 l34 -43 229 0 230 0 37 48 c21
26 46 66 57 89 18 41 20 42 65 40 57 -2 95 20 118 68 23 48 5 108 -40 135 -30
19 -53 20 -434 20 l-403 0 0 -62z m809 17 c46 -24 55 -74 20 -119 -15 -19 -30
-26 -54 -26 -19 0 -36 3 -38 8 -3 4 -2 40 0 80 6 80 15 87 72 57z m-239 -74
c18 -34 -10 -68 -44 -55 -35 13 -23 74 14 74 11 0 24 -9 30 -19z m-340 -26 c0
-33 2 -35 35 -35 28 0 35 -4 35 -20 0 -16 -7 -20 -35 -20 -33 0 -35 -2 -35
-35 0 -28 -4 -35 -20 -35 -16 0 -20 7 -20 35 0 33 -2 35 -35 35 -28 0 -35 4
-35 20 0 16 7 20 35 20 33 0 35 2 35 35 0 28 4 35 20 35 16 0 20 -7 20 -35z
m274 -31 c9 -8 16 -19 16 -24 0 -5 -7 -16 -16 -24 -8 -9 -19 -16 -24 -16 -9 0
-40 28 -40 36 0 3 5 14 10 25 13 23 33 24 54 3z m120 0 c9 -8 16 -19 16 -24 0
-5 -7 -16 -16 -24 -8 -9 -19 -16 -24 -16 -5 0 -16 7 -24 16 -9 8 -16 19 -16
24 0 5 7 16 16 24 8 9 19 16 24 16 5 0 16 -7 24 -16z m-60 -60 c9 -8 16 -19
16 -24 0 -5 -7 -16 -16 -24 -8 -9 -19 -16 -24 -16 -5 0 -16 7 -24 16 -9 8 -16
19 -16 24 0 5 7 16 16 24 8 9 19 16 24 16 5 0 16 -7 24 -16z"/>
<path d="M1567 1613 c-12 -11 -8 -23 8 -23 8 0 15 7 15 15 0 16 -12 20 -23 8z"/>
<path d="M1506 1553 c-11 -11 -6 -23 9 -23 8 0 15 4 15 9 0 13 -16 22 -24 14z"/>
<path d="M1631 1551 c-10 -7 -10 -10 -1 -16 6 -4 16 -3 22 3 13 13 -4 23 -21
13z"/>
<path d="M1560 1480 c0 -5 7 -10 15 -10 8 0 15 5 15 10 0 6 -7 10 -15 10 -8 0
-15 -4 -15 -10z"/>
<path d="M1097 1275 l18 -24 296 -1 297 0 16 25 16 25 -330 0 -331 0 18 -25z"/>
<path d="M620 1053 c-26 -33 -22 -99 6 -120 37 -27 104 -4 104 35 0 17 -15 15
-30 -3 -33 -40 -81 5 -61 58 11 27 43 37 56 17 8 -13 35 -13 35 -1 0 19 -32
41 -60 41 -19 0 -36 -9 -50 -27z"/>
<path d="M777 1062 c-21 -24 -22 -90 -1 -120 11 -15 25 -22 50 -22 47 0 74 29
74 80 0 27 -7 47 -20 60 -26 26 -81 26 -103 2z m81 -24 c15 -15 15 -61 0 -76
-7 -7 -22 -12 -35 -12 -26 0 -39 34 -29 75 7 27 42 35 64 13z"/>
<path d="M930 1001 c0 -65 3 -81 15 -81 10 0 15 11 15 35 0 33 2 35 35 35 19
0 35 5 35 10 0 6 -16 10 -35 10 -28 0 -35 4 -35 20 0 17 7 20 41 20 61 0 45
24 -19 28 l-52 3 0 -80z"/>
<path d="M1060 1000 c0 -64 3 -80 15 -80 10 0 15 11 15 35 0 33 2 35 35 35 19
0 35 5 35 10 0 6 -16 10 -35 10 -28 0 -35 4 -35 20 0 17 7 20 40 20 29 0 40 4
40 15 0 12 -13 15 -55 15 l-55 0 0 -80z"/>
<path d="M1190 1000 l0 -81 57 3 c71 4 88 28 19 28 -39 0 -46 3 -46 19 0 16 8
20 38 23 20 2 37 8 37 13 0 6 -17 11 -37 13 -54 5 -52 32 2 32 29 0 40 4 40
15 0 12 -13 15 -55 15 l-55 0 0 -80z"/>
<path d="M1330 1000 l0 -80 60 0 c47 0 60 3 60 15 0 11 -12 15 -45 15 -38 0
-45 3 -45 20 0 17 7 20 40 20 29 0 40 4 40 15 0 11 -11 15 -40 15 -29 0 -40 4
-40 15 0 11 11 15 40 15 29 0 40 4 40 15 0 12 -13 15 -55 15 l-55 0 0 -80z"/>
<path d="M1562 1068 c-7 -7 -12 -24 -12 -39 0 -15 -4 -31 -10 -34 -14 -9 -12
-51 3 -63 13 -11 117 -13 117 -2 0 3 -5 11 -11 17 -8 8 -8 17 0 32 10 17 9 21
-4 21 -8 0 -15 -5 -15 -11 0 -8 -5 -7 -15 1 -11 9 -13 16 -5 24 15 15 12 53
-6 60 -22 8 -28 8 -42 -6z m38 -27 c0 -17 -18 -21 -24 -6 -3 9 0 15 9 15 8 0
15 -4 15 -9z m0 -82 c0 -5 -9 -9 -20 -9 -19 0 -27 20 -13 33 7 8 33 -11 33
-24z"/>
<path d="M1762 1057 c-29 -30 -30 -89 -2 -117 22 -22 69 -27 88 -8 9 9 12 9
12 0 0 -7 5 -12 10 -12 6 0 10 20 10 45 0 43 -1 45 -30 45 -20 0 -30 -5 -30
-15 0 -8 7 -15 16 -15 9 0 14 -6 12 -12 -7 -19 -59 -16 -72 4 -14 23 4 72 28
76 10 2 29 -2 42 -9 31 -16 42 -4 19 21 -25 28 -76 26 -103 -3z"/>
<path d="M1957 1073 c-6 -10 -57 -143 -57 -149 0 -11 31 -2 36 11 4 9 19 15
35 15 17 0 32 -6 35 -15 7 -18 34 -20 34 -2 0 6 -11 41 -24 77 -22 59 -46 85
-59 63z m32 -85 c1 -5 -6 -8 -14 -8 -15 0 -21 31 -8 44 7 6 20 -17 22 -36z"/>
<path d="M2064 1066 c-3 -7 -4 -42 -2 -77 2 -49 7 -64 18 -64 10 0 17 14 20
40 l6 40 8 -43 c11 -57 36 -54 52 8 l11 45 4 -44 c2 -25 10 -46 17 -49 9 -3
12 17 12 78 0 78 -1 81 -22 78 -18 -2 -24 -12 -31 -48 -9 -48 -27 -77 -27 -44
0 10 -5 36 -11 57 -7 27 -15 37 -30 37 -11 0 -22 -6 -25 -14z"/>
<path d="M2244 1066 c-3 -7 -4 -42 -2 -77 l3 -64 58 -3 c46 -2 57 0 57 13 0
11 -11 15 -40 15 -33 0 -40 3 -40 20 0 16 7 20 35 20 24 0 35 5 35 15 0 10
-11 15 -35 15 -24 0 -35 5 -35 15 0 11 11 15 40 15 29 0 40 4 40 15 0 20 -108
22 -116 1z"/>
</g>
</svg>
