<?xml version="1.0" standalone="no"?>
<!DOCTYPE svg PUBLIC "-//W3C//DTD SVG 20010904//EN"
 "http://www.w3.org/TR/2001/REC-SVG-20010904/DTD/svg10.dtd">
<svg version="1.0" xmlns="http://www.w3.org/2000/svg"
 width="573.000000pt" height="520.000000pt" viewBox="0 0 573.000000 520.000000"
 preserveAspectRatio="xMidYMid meet">

<g transform="translate(0.000000,520.000000) scale(0.100000,-0.100000)"
fill="#000000" stroke="none">
<path d="M2610 4265 c-375 -64 -684 -229 -935 -498 -202 -215 -344 -489 -407
-781 -25 -119 -35 -398 -19 -530 20 -153 99 -418 151 -504 21 -34 50 -41 70
-18 9 12 5 31 -23 93 -47 105 -93 254 -114 366 -26 141 -23 409 5 554 42 210
121 400 243 583 82 123 282 324 404 407 244 164 518 256 805 270 539 24 1050
-231 1358 -680 35 -51 72 -111 82 -134 10 -24 22 -43 26 -43 3 0 4 7 1 15 -4
8 -2 17 4 20 5 4 8 1 7 -6 -2 -7 6 -14 17 -16 15 -3 17 -2 6 5 -9 6 -10 12 -2
16 12 8 -6 56 -21 56 -5 0 -6 5 -2 12 5 8 2 9 -11 4 -14 -5 -15 -4 -7 7 9 10
-2 33 -45 98 -252 378 -637 625 -1097 704 -109 18 -388 19 -496 0z m1637 -852
c1 -22 -1 -24 -8 -10 -6 9 -7 22 -4 27 9 14 10 13 12 -17z"/>
<path d="M2597 4013 c-13 -13 -7 -35 18 -65 40 -47 35 -106 -17 -209 -38 -73
-43 -92 -43 -149 1 -68 25 -137 52 -147 8 -3 22 2 31 10 15 15 15 19 -1 52
-29 61 -22 119 25 214 36 73 42 93 42 151 1 56 -3 73 -27 108 -26 40 -61 55
-80 35z"/>
<path d="M2827 4013 c-13 -13 -7 -35 18 -65 39 -46 34 -105 -17 -209 -35 -72
-41 -93 -41 -149 -1 -69 30 -150 57 -150 30 0 39 28 22 70 -26 65 -21 119 19
195 63 118 67 212 14 287 -19 26 -56 37 -72 21z"/>
<path d="M3057 4013 c-13 -13 -7 -35 18 -65 30 -36 34 -115 9 -163 -64 -119
-68 -130 -67 -195 1 -102 41 -171 78 -134 13 14 13 19 0 51 -27 63 -20 125 24
207 45 85 59 157 41 213 -20 63 -78 111 -103 86z"/>
<path d="M2102 3665 c-156 -117 -272 -260 -367 -450 -137 -275 -167 -566 -90
-872 88 -346 341 -651 675 -813 47 -22 93 -39 103 -36 9 2 15 1 12 -4 -7 -11
118 -42 139 -34 15 6 17 4 11 -6 -6 -10 -4 -12 8 -7 9 3 19 2 22 -3 4 -6 11
-10 17 -10 7 0 6 6 -2 15 -10 12 -10 15 1 15 11 0 11 3 -1 11 -12 8 -7 9 18 6
59 -7 33 9 -35 22 -92 17 -170 44 -275 97 -124 61 -208 123 -314 229 -154 156
-256 334 -310 542 -32 121 -43 336 -25 463 27 180 103 370 207 515 58 83 177
204 257 264 59 45 75 82 41 95 -25 10 -29 8 -92 -39z"/>
<path d="M3522 3698 c-23 -23 -12 -44 46 -86 126 -91 308 -305 353 -414 6 -15
15 -25 20 -22 5 3 6 -1 4 -8 -3 -8 10 -48 30 -89 19 -40 32 -63 29 -50 -5 19
-3 23 9 18 11 -4 14 -2 10 9 -3 8 -12 13 -19 10 -8 -3 -14 -2 -14 2 0 11 19
37 23 32 2 -3 12 -16 21 -30 l18 -25 -7 24 c-13 44 -43 103 -47 94 -3 -4 -3
-2 -2 5 5 17 -38 102 -48 96 -4 -3 -5 1 -3 8 16 40 -233 328 -349 406 -56 36
-57 37 -74 20z"/>
<path d="M2595 3334 c-100 -11 -222 -36 -264 -55 -86 -38 -81 -18 -81 -323 0
-209 3 -285 15 -329 17 -65 55 -146 92 -195 14 -18 23 -35 20 -38 -2 -3 -51
-16 -108 -30 -238 -57 -293 -144 -139 -222 134 -67 408 -99 755 -88 225 7 278
13 269 28 -4 6 2 7 17 3 17 -5 21 -4 14 3 -14 15 -65 26 -65 15 0 -16 -540 -7
-670 11 -205 28 -350 75 -350 114 0 10 13 25 28 34 37 22 183 64 252 73 53 6
58 5 115 -33 99 -66 171 -86 305 -87 96 0 127 4 187 24 40 14 69 29 66 34 -3
6 -1 7 5 3 15 -9 55 18 44 29 -4 5 -2 5 5 2 6 -4 25 4 41 18 l30 25 81 -14
c68 -12 87 -12 113 -2 l30 13 -71 18 c-39 9 -83 14 -99 11 -20 -5 -23 -4 -12
4 8 5 11 10 6 10 -5 0 1 11 13 24 14 15 60 37 119 56 90 29 142 52 166 71 6 5
26 21 44 35 23 19 30 30 23 37 -16 16 -13 31 3 18 11 -9 18 -5 35 22 12 19 21
38 21 43 0 5 -4 3 -9 -5 -7 -10 -9 -7 -8 12 2 18 5 23 14 16 18 -16 28 112 14
177 -18 81 -86 165 -163 203 -33 17 -75 33 -94 37 -31 6 -34 9 -34 41 0 71
-74 113 -250 143 -66 12 -451 22 -525 14z m430 -54 c126 -14 224 -37 265 -61
33 -20 33 -22 15 -35 -30 -22 -134 -51 -227 -65 -120 -17 -432 -14 -554 4 -98
15 -208 49 -219 67 -16 25 130 72 275 89 106 12 339 13 445 1z m295 -373 c0
-238 -6 -274 -65 -385 -68 -129 -185 -217 -345 -258 -206 -52 -457 72 -556
276 -46 95 -54 148 -54 377 l0 205 23 -6 c233 -68 532 -83 797 -39 52 8 115
23 140 32 25 10 48 16 53 14 4 -2 7 -100 7 -216z m134 162 c60 -22 127 -87
153 -147 15 -36 33 -162 24 -162 -7 0 -32 -68 -34 -92 -1 -9 -5 -14 -9 -12 -5
3 -13 -8 -19 -25 -6 -17 -15 -28 -20 -25 -5 3 -13 -6 -19 -20 -5 -14 -15 -26
-22 -25 -10 0 -10 2 0 6 6 2 12 9 12 15 0 5 -12 1 -27 -10 -47 -32 -169 -76
-184 -66 -5 2 -1 20 8 40 14 28 28 38 77 56 144 53 202 181 140 307 -29 57
-97 111 -141 111 -20 0 -23 5 -23 35 0 42 8 43 84 14z m-6 -126 c17 -13 39
-38 48 -55 21 -40 21 -116 1 -154 -16 -31 -75 -77 -114 -88 l-22 -7 5 163 c2
90 4 166 4 170 0 12 45 -5 78 -29z m142 -336 c0 -2 -8 -12 -19 -21 -16 -15
-19 -15 -24 -2 -4 10 -1 13 7 10 8 -3 17 -1 21 5 6 11 15 15 15 8z"/>
<path d="M2630 3004 c-107 -10 -213 -26 -238 -36 -26 -11 -25 -11 28 -24 113
-27 357 -39 538 -26 183 14 295 33 273 46 -41 26 -455 53 -601 40z"/>
<path d="M2350 2796 c0 -276 191 -476 455 -476 206 0 384 132 441 325 18 63
22 241 6 237 -139 -30 -214 -36 -437 -36 -228 0 -331 9 -442 40 -23 6 -23 5
-23 -90z"/>
<path d="M4031 3014 c0 -11 3 -14 6 -6 3 7 2 16 -1 19 -3 4 -6 -2 -5 -13z"/>
<path d="M3420 2330 c8 -5 20 -10 25 -10 6 0 3 5 -5 10 -8 5 -19 10 -25 10 -5
0 -3 -5 5 -10z"/>
<path d="M3370 2320 c-8 -5 -10 -10 -5 -10 6 0 17 5 25 10 8 5 11 10 5 10 -5
0 -17 -5 -25 -10z"/>
<path d="M3400 2306 c0 -2 7 -7 16 -10 8 -3 12 -2 9 4 -6 10 -25 14 -25 6z"/>
<path d="M1566 1683 c-5 -11 -1 -22 9 -30 23 -16 47 -5 43 21 -4 27 -43 34
-52 9z"/>
<path d="M1803 1543 c-32 -6 -63 -50 -63 -89 0 -39 33 -80 73 -90 23 -5 27 -3
27 15 0 12 -6 21 -14 21 -42 0 -60 64 -28 93 29 26 61 21 80 -13 29 -50 59
-30 31 22 -9 16 -71 52 -81 47 -2 -1 -13 -4 -25 -6z"/>
<path d="M2698 1473 c6 -2 18 -2 25 0 6 3 1 5 -13 5 -14 0 -19 -2 -12 -5z"/>
<path d="M2678 1423 c7 -3 16 -2 19 1 4 3 -2 6 -13 5 -11 0 -14 -3 -6 -6z"/>
<path d="M1946 1379 c-35 -41 -34 -83 3 -120 73 -73 190 -2 151 92 -15 34 -56
59 -99 59 -20 0 -37 -9 -55 -31z m116 -35 c25 -54 -40 -107 -82 -69 -23 21
-26 54 -7 77 26 33 72 29 89 -8z"/>
<path d="M2171 1240 c-31 -67 -35 -100 -11 -100 6 0 15 12 20 26 9 22 14 25
38 19 42 -11 55 -11 59 2 2 6 -12 16 -31 23 -37 12 -45 30 -23 48 8 7 19 6 37
-3 32 -18 50 -19 50 -1 0 12 -16 21 -96 53 -6 2 -25 -28 -43 -67z"/>
<path d="M3360 1230 c-34 -35 -38 -66 -12 -87 9 -8 11 -12 5 -8 -9 4 -11 1 -7
-10 14 -36 89 -46 124 -17 18 14 19 19 7 19 -9 0 -14 -5 -10 -10 3 -5 -4 -6
-18 -2 -19 5 -21 4 -9 -4 13 -9 13 -11 0 -11 -9 0 -22 6 -29 13 -11 10 -13 10
-7 0 4 -7 3 -13 -2 -13 -5 0 -17 15 -27 33 -22 41 -14 84 18 96 74 29 75 30
34 30 -29 1 -44 -6 -67 -29z"/>
<path d="M2371 1203 c-6 -21 -17 -59 -25 -85 -13 -41 -13 -47 1 -52 21 -9 21
-9 28 25 7 32 6 32 76 17 30 -7 12 26 -19 34 -27 7 -33 13 -30 31 3 23 10 24
66 12 51 -12 42 18 -10 32 -24 7 -51 15 -60 18 -13 5 -19 -2 -27 -32z"/>
<path d="M3459 1228 c18 -23 43 -24 34 -1 -4 11 -8 13 -11 5 -3 -10 -7 -10
-20 0 -15 12 -16 11 -3 -4z"/>
<path d="M3149 1188 l-35 -9 15 -80 c15 -79 37 -106 43 -52 2 20 10 29 31 34
59 16 76 60 37 99 -22 22 -36 23 -91 8z m78 -34 c9 -23 -9 -48 -37 -52 -26 -4
-40 12 -40 46 0 19 5 22 35 22 24 0 38 -5 42 -16z"/>
<path d="M3502 1180 c0 -14 2 -19 5 -12 2 6 2 18 0 25 -3 6 -5 1 -5 -13z"/>
<path d="M2565 1168 c-13 -57 -23 -144 -17 -149 4 -4 36 -10 71 -14 51 -6 63
-5 59 6 -3 8 -23 17 -46 20 -49 6 -57 12 -48 35 5 13 15 15 46 11 27 -3 40 -1
44 9 3 9 -8 15 -40 20 -46 7 -49 10 -35 32 5 9 23 13 51 11 61 -5 63 17 3 25
-26 4 -56 9 -65 12 -12 4 -19 -2 -23 -18z"/>
<path d="M2780 1075 l0 -85 65 0 c36 0 65 4 65 9 0 13 -26 21 -66 21 -27 0
-34 4 -34 19 0 16 8 20 42 23 60 4 63 28 3 28 -42 0 -46 2 -43 23 3 19 10 22
51 25 71 5 57 22 -18 22 l-65 0 0 -85z"/>
</g>
</svg>
