<?xml version="1.0" standalone="no"?>
<!DOCTYPE svg PUBLIC "-//W3C//DTD SVG 20010904//EN"
 "http://www.w3.org/TR/2001/REC-SVG-20010904/DTD/svg10.dtd">
<svg version="1.0" xmlns="http://www.w3.org/2000/svg"
 width="660.000000pt" height="914.000000pt" viewBox="0 0 660.000000 914.000000"
 preserveAspectRatio="xMidYMid meet">

<g transform="translate(0.000000,914.000000) scale(0.100000,-0.100000)"
fill="#000000" stroke="none">
<path d="M4075 8758 c73 -41 168 -127 201 -184 35 -60 45 -99 45 -179 0 -128
-64 -258 -168 -340 -65 -52 -334 -188 -463 -234 -47 -17 -164 -58 -260 -92
-313 -110 -469 -205 -575 -349 -28 -39 -46 -51 -97 -70 -268 -97 -473 -286
-530 -488 -44 -157 -32 -325 41 -542 21 -63 46 -164 55 -225 39 -261 143 -453
339 -623 115 -100 259 -170 417 -204 115 -24 355 -29 470 -9 342 60 650 323
755 646 l27 82 75 7 c205 17 357 96 415 214 34 71 31 181 -7 250 -49 91 -166
145 -342 159 l-83 6 0 66 c0 146 -57 270 -185 398 l-81 82 86 36 c162 67 278
162 335 275 28 56 61 167 52 176 -1 1 -16 -23 -32 -54 -17 -33 -61 -89 -105
-133 -96 -96 -196 -149 -356 -190 -106 -26 -118 -28 -144 -14 -36 19 -54 19
-21 1 24 -13 23 -14 -25 -20 -27 -3 -121 -10 -210 -16 -189 -11 -286 -25 -363
-51 -49 -18 -249 -45 -258 -35 -10 9 88 82 151 112 83 39 178 65 331 89 61 10
119 21 130 25 11 5 53 18 93 30 119 34 302 116 397 178 264 171 444 450 445
689 0 129 -56 259 -156 360 -93 92 -255 168 -424 198 -31 5 -29 3 25 -27z
m-1291 -1560 c-5 -47 8 -118 30 -169 5 -11 -11 -25 -66 -55 -106 -57 -238
-192 -301 -307 -26 -48 -58 -115 -71 -149 -26 -70 -31 -67 -60 31 -56 191 36
414 236 567 51 40 212 133 230 134 4 0 4 -24 2 -52z m1361 -133 c67 -68 107
-126 148 -213 30 -63 32 -74 32 -177 0 -119 -13 -161 -81 -265 l-29 -45 -6 95
c-7 116 -33 191 -95 282 -82 120 -231 234 -388 295 l-71 28 146 12 c79 7 172
19 204 26 86 21 82 22 140 -38z m186 -703 c-82 -246 -274 -533 -395 -592 -24
-11 -88 -32 -142 -46 -161 -42 -283 -25 -352 49 l-23 24 78 13 c379 61 699
285 828 582 16 37 31 66 33 64 2 -2 -10 -45 -27 -94z m290 -72 c40 -11 83 -53
92 -89 3 -13 -1 -40 -9 -60 -44 -105 -167 -162 -385 -177 -64 -4 -102 -3 -115
4 -10 6 -14 12 -8 12 47 1 199 35 253 57 140 56 201 113 201 187 0 42 -8 45
-39 12 -33 -35 -107 -64 -185 -72 l-67 -7 3 53 3 53 50 18 c56 20 152 24 206
9z"/>
<path d="M3710 8721 c95 -49 167 -113 205 -183 26 -46 30 -63 29 -128 0 -62
-5 -85 -29 -133 -59 -118 -194 -215 -462 -331 -272 -118 -366 -169 -538 -296
-93 -69 -265 -225 -265 -241 0 -6 26 12 59 39 195 163 425 277 846 422 246 84
389 154 464 225 74 71 113 152 119 248 4 58 1 75 -23 124 -65 132 -262 262
-436 287 -44 6 -44 6 31 -33z"/>
<path d="M2084 6678 c-186 -193 -309 -397 -365 -608 -32 -118 -32 -319 0 -435
82 -305 322 -573 665 -741 221 -108 443 -166 699 -183 515 -34 1004 120 1328
418 225 207 339 461 365 812 4 64 3 103 -4 115 -10 17 -11 16 -12 -8 0 -38
-46 -179 -85 -264 -137 -299 -461 -546 -840 -643 -288 -73 -629 -72 -943 4
-274 66 -534 213 -679 384 -117 137 -180 258 -224 428 -30 115 -33 349 -6 457
22 89 87 227 133 283 19 23 34 43 32 43 -2 0 -31 -28 -64 -62z"/>
<path d="M5010 5802 c0 -22 -2 -47 -6 -55 -4 -10 92 -69 353 -217 197 -112
386 -222 420 -246 97 -69 177 -165 233 -279 91 -186 85 -71 85 -1505 0 -1411
4 -1316 -70 -1477 -61 -132 -154 -244 -265 -319 -25 -17 -184 -110 -355 -206
-170 -97 -573 -325 -895 -508 -322 -183 -659 -375 -751 -426 -91 -52 -199
-105 -240 -119 -168 -58 -363 -56 -526 3 -88 33 -2155 1202 -2262 1280 -130
95 -238 258 -281 426 -20 77 -20 108 -20 1346 0 1238 0 1269 20 1346 42 162
149 328 273 421 30 23 207 129 392 234 l337 192 -6 30 c-3 16 -6 38 -6 48 0
11 -5 19 -11 19 -14 0 -610 -337 -710 -402 -210 -135 -356 -369 -389 -620 -13
-103 -13 -2429 0 -2536 13 -101 65 -250 119 -341 50 -84 155 -199 235 -255 33
-24 207 -127 386 -228 179 -102 659 -374 1067 -606 513 -291 768 -430 825
-450 199 -71 413 -69 613 6 85 31 2176 1213 2269 1282 181 134 311 349 346
570 14 89 14 2491 0 2580 -31 195 -122 363 -272 506 -77 73 -117 98 -488 309
-222 127 -407 232 -412 233 -4 2 -8 -14 -8 -36z"/>
<path d="M4961 5518 c-49 -152 -163 -342 -290 -480 -151 -165 -399 -326 -651
-424 -442 -170 -1002 -182 -1464 -30 -499 164 -864 474 -1037 881 -21 50 -43
89 -50 87 -19 -5 -610 -343 -670 -383 -71 -47 -129 -114 -173 -199 -71 -135
-66 -34 -66 -1465 0 -1413 -3 -1340 59 -1463 43 -85 102 -154 173 -205 35 -24
419 -246 853 -492 435 -246 920 -522 1078 -612 158 -91 314 -174 345 -186 79
-29 290 -31 372 -3 30 10 557 302 1170 650 1032 584 1119 636 1180 696 72 71
116 139 152 240 l23 65 0 1295 c0 1418 4 1333 -61 1468 -42 88 -139 190 -229
244 -100 59 -683 388 -687 388 -2 0 -14 -33 -27 -72z m-2404 -1996 c117 -295
215 -545 219 -554 6 -16 -3 -18 -94 -18 l-101 0 -22 60 -22 60 -197 0 -197 0
-22 -60 -22 -60 -101 0 c-76 0 -99 3 -95 13 16 42 300 764 360 914 40 101 74
183 77 183 3 0 100 -242 217 -538z m926 491 c94 -35 147 -79 185 -153 32 -61
33 -70 30 -150 -3 -71 -9 -94 -33 -139 -32 -58 -87 -105 -154 -131 -21 -8 -40
-19 -41 -23 -2 -5 63 -112 143 -238 l146 -230 -111 3 -111 3 -141 222 -141
223 -52 0 -53 0 0 -225 0 -225 -95 0 -95 0 0 315 0 315 86 0 c69 0 85 3 81 14
-3 7 -42 70 -86 139 l-81 126 0 91 0 92 233 -4 c208 -3 238 -6 290 -25z m1057
-58 l0 -85 -115 0 -115 0 0 -460 0 -460 -95 0 -95 0 0 460 0 460 -115 0 -115
0 0 85 0 85 325 0 325 0 0 -85z m-3170 -1267 c38 -12 110 -54 110 -65 0 -4
-14 -22 -32 -40 l-31 -32 -44 25 c-33 20 -57 26 -102 26 -122 0 -196 -77 -196
-202 0 -75 23 -122 83 -168 32 -24 44 -27 113 -27 66 0 82 4 109 24 l32 23 37
-36 c35 -36 36 -37 16 -52 -63 -48 -98 -59 -195 -59 -88 0 -99 2 -150 31 -103
58 -157 165 -148 293 15 202 197 320 398 259z m896 -19 c92 -46 148 -149 148
-269 0 -120 -52 -213 -146 -266 -48 -26 -62 -29 -148 -29 -83 0 -101 3 -145
26 -165 86 -204 330 -78 480 78 93 246 119 369 58z m924 -19 l0 -50 -150 0
-150 0 0 -75 0 -75 125 0 125 0 0 -50 0 -50 -125 0 -125 0 0 -125 0 -125 -50
0 -50 0 0 300 0 300 200 0 200 0 0 -50z m760 0 l0 -50 -150 0 -150 0 0 -75 0
-75 125 0 125 0 0 -50 0 -50 -125 0 -124 0 -3 -122 -3 -123 -50 0 -50 0 -3
285 c-1 157 0 290 3 297 3 10 53 13 205 13 l200 0 0 -50z m750 0 l0 -50 -150
0 -150 0 0 -75 0 -75 125 0 125 0 0 -50 0 -50 -125 0 -126 0 3 -72 3 -73 148
-3 147 -3 0 -49 0 -50 -197 2 -198 3 -3 298 -2 297 200 0 200 0 0 -50z m770 0
l0 -50 -150 0 -150 0 0 -75 0 -75 125 0 125 0 0 -50 0 -50 -125 0 -126 0 3
-72 3 -73 148 -3 148 -3 -3 -47 -3 -47 -197 -3 -198 -2 0 300 0 300 200 0 200
0 0 -50z m-2144 -741 c61 -29 134 -119 134 -164 0 -19 -4 -37 -10 -40 -5 -3
-10 -17 -10 -30 0 -17 -8 -26 -31 -34 -100 -35 -263 31 -318 129 -25 45 -26
61 -5 101 35 68 144 85 240 38z m-446 -129 c0 -7 -250 -10 -730 -10 -480 0
-730 3 -730 10 0 7 250 10 730 10 480 0 730 -3 730 -10z m2265 0 c4 -7 -247
-10 -744 -10 -494 0 -751 3 -751 10 0 7 255 10 744 10 486 0 747 -3 751 -10z"/>
<path d="M2275 3428 c-33 -94 -61 -177 -63 -184 -3 -11 22 -14 127 -14 72 0
131 3 131 6 0 12 -121 349 -128 356 -4 4 -34 -70 -67 -164z"/>
<path d="M3193 3847 c3 -9 41 -71 84 -138 l77 -121 40 7 c55 8 103 47 117 94
10 33 9 45 -7 78 -29 58 -88 83 -215 90 -91 5 -102 4 -96 -10z"/>
<path d="M2085 2604 c-83 -19 -136 -73 -155 -158 -12 -55 -5 -97 27 -157 33
-62 85 -91 162 -91 118 0 191 77 191 202 0 84 -37 152 -100 185 -29 15 -97 25
-125 19z"/>
<path d="M3127 1903 c-4 -3 10 -14 31 -23 20 -10 57 -37 82 -62 29 -29 66 -52
105 -67 33 -12 65 -29 72 -37 16 -21 27 0 13 26 -6 11 -34 31 -63 44 -29 13
-70 40 -92 61 -55 52 -127 80 -148 58z"/>
</g>
</svg>
