<?xml version="1.0" standalone="no"?>
<!DOCTYPE svg PUBLIC "-//W3C//DTD SVG 20010904//EN"
 "http://www.w3.org/TR/2001/REC-SVG-20010904/DTD/svg10.dtd">
<svg version="1.0" xmlns="http://www.w3.org/2000/svg"
 width="651.000000pt" height="580.000000pt" viewBox="0 0 651.000000 580.000000"
 preserveAspectRatio="xMidYMid meet">

<g transform="translate(0.000000,580.000000) scale(0.100000,-0.100000)"
fill="#000000" stroke="none">
<path d="M2628 3353 c7 -3 16 -2 19 1 4 3 -2 6 -13 5 -11 0 -14 -3 -6 -6z"/>
<path d="M3035 3302 c-20 -5 -35 -17 -45 -38 l-15 -32 -300 -1 c-165 0 -311
-2 -325 -5 -14 -2 -59 -4 -100 -6 l-75 -2 50 -16 c28 -8 122 -34 210 -57 l160
-41 5 -37 5 -38 347 -2 347 -2 3 39 3 39 180 47 c99 25 194 51 210 57 27 10
23 11 -38 12 -40 1 -80 7 -97 16 -17 9 -53 15 -82 14 -73 -1 -111 6 -141 26
-22 14 -34 15 -82 6 -45 -9 -64 -8 -98 5 -53 20 -84 24 -122 16z m238 -59
c-29 -2 -78 -2 -110 0 -32 2 -8 3 52 3 61 0 87 -1 58 -3z"/>
<path d="M1498 2912 c-54 -1 -98 -5 -98 -9 0 -3 8 -12 18 -19 13 -11 92 -13
370 -14 193 0 352 -2 352 -5 0 -2 -12 -21 -26 -42 -18 -27 -24 -46 -20 -66 3
-15 67 -107 143 -205 75 -97 173 -224 217 -282 405 -530 863 -1070 907 -1070
10 0 55 27 99 60 84 61 251 156 330 185 25 10 55 28 67 41 21 23 22 31 17 127
-3 56 -21 179 -40 272 -51 256 -64 395 -64 681 0 204 -3 254 -15 270 -8 10
-15 22 -15 27 0 4 154 7 343 7 280 0 347 3 363 14 10 8 16 17 12 21 -6 7
-2758 13 -2960 7z m930 -57 c3 -3 -4 -13 -17 -21 -48 -34 -32 -57 222 -318
231 -238 308 -310 294 -274 -6 16 -126 212 -299 488 l-78 125 32 7 c18 3 57 7
86 7 51 0 54 -2 47 -22 -4 -12 -10 -44 -12 -70 -8 -77 23 -143 200 -427 90
-146 131 -199 143 -188 3 4 -21 98 -55 210 -33 112 -75 254 -92 317 -19 66
-43 126 -56 142 -13 15 -23 30 -23 33 0 9 178 7 183 -1 2 -5 1 -62 -3 -128
-12 -174 -1 -252 61 -441 45 -135 58 -165 78 -174 16 -7 27 -8 34 -1 7 7 3
122 -12 343 -19 288 -24 337 -41 366 -11 18 -20 35 -20 37 0 1 119 4 265 4
150 1 265 -2 265 -7 0 -5 -9 -17 -20 -27 -28 -25 -37 -61 -60 -240 -39 -309
-60 -470 -66 -487 -7 -24 -79 -50 -154 -55 -126 -10 -318 55 -445 151 -48 36
-623 631 -633 655 -3 8 168 4 176 -4z"/>
<path d="M3790 1411 c-127 -58 -207 -104 -309 -175 -93 -66 -123 -97 -112
-115 6 -10 25 -1 79 37 103 74 234 150 365 212 78 37 116 60 114 70 -4 25 -29
20 -137 -29z"/>
<path d="M3900 1382 c-183 -81 -428 -229 -532 -322 -41 -36 -42 -40 -29 -62 8
-13 37 -62 64 -110 l49 -88 475 0 475 0 -20 33 c-11 17 -54 93 -97 167 -226
394 -243 420 -279 419 -12 0 -59 -17 -106 -37z m144 -28 c29 -28 -10 -71 -46
-52 -21 10 -23 39 -6 56 16 16 33 15 52 -4z m40 -67 c36 -26 -4 -84 -41 -61
-24 15 -27 38 -8 58 20 19 26 20 49 3z"/>
</g>
</svg>
